<?xml version="1.0" encoding="UTF-8" standalone="no"?>
<!DOCTYPE svg PUBLIC "-//W3C//DTD SVG 1.1//EN"
 "http://www.w3.org/Graphics/SVG/1.1/DTD/svg11.dtd">
<!-- Generated by graphviz version 2.47.0 (20210316.0004)
 -->
<!-- Title: dependencies Pages: 1 -->
<svg width="504pt" height="284pt"
 viewBox="0.00 0.00 504.00 284.00" xmlns="http://www.w3.org/2000/svg" xmlns:xlink="http://www.w3.org/1999/xlink">
<g id="graph0" class="graph" transform="scale(1 1) rotate(0) translate(4 280)">
<title>dependencies</title>
<polygon fill="white" stroke="transparent" points="-4,4 -4,-280 500,-280 500,4 -4,4"/>
<text text-anchor="start" x="227.01" y="-42.4" font-family="Times-12" font-weight="bold" font-size="14.00">Legend</text>
<polygon fill="#ffffb3" stroke="transparent" points="14,-10 14,-30 34,-30 34,-10 14,-10"/>
<text text-anchor="start" x="37.63" y="-15.4" font-family="Times-12" font-size="14.00"> &#160;Declarations</text>
<polygon fill="#8dd3c7" stroke="transparent" points="127,-10 127,-30 147,-30 147,-10 127,-10"/>
<text text-anchor="start" x="150.73" y="-15.4" font-family="Times-12" font-size="14.00"> &#160;Module</text>
<polygon fill="#80b1d3" stroke="transparent" points="213,-10 213,-30 233,-30 233,-10 213,-10"/>
<text text-anchor="start" x="236.78" y="-15.4" font-family="Times-12" font-size="14.00"> &#160;Bootstrap</text>
<polygon fill="#fdb462" stroke="transparent" points="310,-10 310,-30 330,-30 330,-10 310,-10"/>
<text text-anchor="start" x="333.67" y="-15.4" font-family="Times-12" font-size="14.00"> &#160;Providers</text>
<polygon fill="#fb8072" stroke="transparent" points="406,-10 406,-30 426,-30 426,-10 406,-10"/>
<text text-anchor="start" x="429.73" y="-15.4" font-family="Times-12" font-size="14.00"> &#160;Exports</text>
<g id="clust1" class="cluster">
<title>cluster_CeriousWidgetsModule</title>
<polygon fill="none" stroke="black" stroke-dasharray="1,5" points="80,-70 80,-268 416,-268 416,-70 80,-70"/>
</g>
<g id="clust2" class="cluster">
<title>cluster_CeriousWidgetsModule_declarations</title>
<polygon fill="none" stroke="black" points="92,-78 92,-130 405,-130 405,-78 92,-78"/>
</g>
<g id="clust6" class="cluster">
<title>cluster_CeriousWidgetsModule_exports</title>
<polygon fill="none" stroke="black" points="88,-208 88,-260 408,-260 408,-208 88,-208"/>
</g>
<!-- GridComponent -->
<g id="node1" class="node">
<title>GridComponent</title>
<polygon fill="#ffffb3" stroke="black" points="397.49,-122 290.51,-122 290.51,-86 397.49,-86 397.49,-122"/>
<text text-anchor="middle" x="344" y="-99.8" font-family="Times,serif" font-size="14.00">GridComponent</text>
</g>
<!-- CeriousWidgetsModule -->
<g id="node3" class="node">
<title>CeriousWidgetsModule</title>
<polygon fill="#8dd3c7" stroke="black" points="261.75,-187 258.75,-191 237.75,-191 234.75,-187 112.25,-187 112.25,-151 261.75,-151 261.75,-187"/>
<text text-anchor="middle" x="187" y="-164.8" font-family="Times,serif" font-size="14.00">CeriousWidgetsModule</text>
</g>
<!-- GridComponent&#45;&gt;CeriousWidgetsModule -->
<g id="edge1" class="edge">
<title>GridComponent&#45;&gt;CeriousWidgetsModule</title>
<path fill="none" stroke="black" d="M361.83,-122.02C361.83,-139.37 361.83,-163 361.83,-163 361.83,-163 271.91,-163 271.91,-163"/>
<polygon fill="black" stroke="black" points="271.91,-159.5 261.91,-163 271.91,-166.5 271.91,-159.5"/>
</g>
<!-- TemplateRegistrarDirective -->
<g id="node2" class="node">
<title>TemplateRegistrarDirective</title>
<polygon fill="#ffffb3" stroke="black" points="272.26,-122 99.74,-122 99.74,-86 272.26,-86 272.26,-122"/>
<text text-anchor="middle" x="186" y="-99.8" font-family="Times,serif" font-size="14.00">TemplateRegistrarDirective</text>
</g>
<!-- TemplateRegistrarDirective&#45;&gt;CeriousWidgetsModule -->
<g id="edge2" class="edge">
<title>TemplateRegistrarDirective&#45;&gt;CeriousWidgetsModule</title>
<path fill="none" stroke="black" d="M187,-122.11C187,-122.11 187,-140.99 187,-140.99"/>
<polygon fill="black" stroke="black" points="183.5,-140.99 187,-150.99 190.5,-140.99 183.5,-140.99"/>
</g>
<!-- GridComponent  -->
<g id="node4" class="node">
<title>GridComponent </title>
<polygon fill="#fb8072" stroke="black" points="400.49,-252 289.51,-252 289.51,-216 400.49,-216 400.49,-252"/>
<text text-anchor="middle" x="345" y="-229.8" font-family="Times,serif" font-size="14.00">GridComponent </text>
</g>
<!-- CeriousWidgetsModule&#45;&gt;GridComponent  -->
<g id="edge3" class="edge">
<title>CeriousWidgetsModule&#45;&gt;GridComponent </title>
<path fill="none" stroke="black" stroke-dasharray="5,2" d="M261.88,-175C294.82,-175 326.17,-175 326.17,-175 326.17,-175 326.17,-205.98 326.17,-205.98"/>
<polygon fill="black" stroke="black" points="322.67,-205.98 326.17,-215.98 329.67,-205.98 322.67,-205.98"/>
</g>
<!-- TemplateRegistrarDirective  -->
<g id="node5" class="node">
<title>TemplateRegistrarDirective </title>
<polygon fill="#fb8072" stroke="black" points="271.76,-252 96.24,-252 96.24,-216 271.76,-216 271.76,-252"/>
<text text-anchor="middle" x="184" y="-229.8" font-family="Times,serif" font-size="14.00">TemplateRegistrarDirective </text>
</g>
<!-- CeriousWidgetsModule&#45;&gt;TemplateRegistrarDirective  -->
<g id="edge4" class="edge">
<title>CeriousWidgetsModule&#45;&gt;TemplateRegistrarDirective </title>
<path fill="none" stroke="black" stroke-dasharray="5,2" d="M187,-187.11C187,-187.11 187,-205.99 187,-205.99"/>
<polygon fill="black" stroke="black" points="183.5,-205.99 187,-215.99 190.5,-205.99 183.5,-205.99"/>
</g>
</g>
</svg>
