<?xml version="1.0" encoding="UTF-8" standalone="no"?>
<!DOCTYPE svg PUBLIC "-//W3C//DTD SVG 1.1//EN"
 "http://www.w3.org/Graphics/SVG/1.1/DTD/svg11.dtd">
<!-- Generated by graphviz version 2.47.0 (20210316.0004)
 -->
<!-- Title: dependencies Pages: 1 -->
<svg width="4626pt" height="284pt"
 viewBox="0.00 0.00 4626.00 284.00" xmlns="http://www.w3.org/2000/svg" xmlns:xlink="http://www.w3.org/1999/xlink">
<g id="graph0" class="graph" transform="scale(1 1) rotate(0) translate(4 280)">
<title>dependencies</title>
<polygon fill="white" stroke="transparent" points="-4,4 -4,-280 4622,-280 4622,4 -4,4"/>
<text text-anchor="start" x="2288.01" y="-42.4" font-family="Times-12" font-weight="bold" font-size="14.00">Legend</text>
<polygon fill="#ffffb3" stroke="transparent" points="2075,-10 2075,-30 2095,-30 2095,-10 2075,-10"/>
<text text-anchor="start" x="2098.63" y="-15.4" font-family="Times-12" font-size="14.00"> &#160;Declarations</text>
<polygon fill="#8dd3c7" stroke="transparent" points="2188,-10 2188,-30 2208,-30 2208,-10 2188,-10"/>
<text text-anchor="start" x="2211.73" y="-15.4" font-family="Times-12" font-size="14.00"> &#160;Module</text>
<polygon fill="#80b1d3" stroke="transparent" points="2274,-10 2274,-30 2294,-30 2294,-10 2274,-10"/>
<text text-anchor="start" x="2297.78" y="-15.4" font-family="Times-12" font-size="14.00"> &#160;Bootstrap</text>
<polygon fill="#fdb462" stroke="transparent" points="2371,-10 2371,-30 2391,-30 2391,-10 2371,-10"/>
<text text-anchor="start" x="2394.67" y="-15.4" font-family="Times-12" font-size="14.00"> &#160;Providers</text>
<polygon fill="#fb8072" stroke="transparent" points="2467,-10 2467,-30 2487,-30 2487,-10 2467,-10"/>
<text text-anchor="start" x="2490.73" y="-15.4" font-family="Times-12" font-size="14.00"> &#160;Exports</text>
<g id="clust1" class="cluster">
<title>cluster_CeriousWidgetsModule</title>
<polygon fill="none" stroke="black" stroke-dasharray="1,5" points="8,-70 8,-268 344,-268 344,-70 8,-70"/>
</g>
<g id="clust2" class="cluster">
<title>cluster_CeriousWidgetsModule_declarations</title>
<polygon fill="none" stroke="black" points="20,-78 20,-130 333,-130 333,-78 20,-78"/>
</g>
<g id="clust6" class="cluster">
<title>cluster_CeriousWidgetsModule_exports</title>
<polygon fill="none" stroke="black" points="16,-208 16,-260 336,-260 336,-208 16,-208"/>
</g>
<g id="clust9" class="cluster">
<title>cluster_GridComponentsModule</title>
<polygon fill="none" stroke="black" stroke-dasharray="1,5" points="352,-70 352,-268 4610,-268 4610,-70 352,-70"/>
</g>
<g id="clust10" class="cluster">
<title>cluster_GridComponentsModule_declarations</title>
<polygon fill="none" stroke="black" points="392,-78 392,-130 4564,-130 4564,-78 392,-78"/>
</g>
<g id="clust33" class="cluster">
<title>cluster_GridComponentsModule_exports</title>
<polygon fill="none" stroke="black" points="360,-208 360,-260 4602,-260 4602,-208 360,-208"/>
</g>
<!-- GridComponent -->
<g id="node1" class="node">
<title>GridComponent</title>
<polygon fill="#ffffb3" stroke="black" points="325.49,-122 218.51,-122 218.51,-86 325.49,-86 325.49,-122"/>
<text text-anchor="middle" x="272" y="-99.8" font-family="Times,serif" font-size="14.00">GridComponent</text>
</g>
<!-- CeriousWidgetsModule -->
<g id="node3" class="node">
<title>CeriousWidgetsModule</title>
<polygon fill="#8dd3c7" stroke="black" points="189.75,-187 186.75,-191 165.75,-191 162.75,-187 40.25,-187 40.25,-151 189.75,-151 189.75,-187"/>
<text text-anchor="middle" x="115" y="-164.8" font-family="Times,serif" font-size="14.00">CeriousWidgetsModule</text>
</g>
<!-- GridComponent&#45;&gt;CeriousWidgetsModule -->
<g id="edge1" class="edge">
<title>GridComponent&#45;&gt;CeriousWidgetsModule</title>
<path fill="none" stroke="black" d="M289.83,-122.15C289.83,-145.76 289.83,-184 289.83,-184 289.83,-184 199.91,-184 199.91,-184"/>
<polygon fill="black" stroke="black" points="199.91,-180.5 189.91,-184 199.91,-187.5 199.91,-180.5"/>
</g>
<!-- TemplateRegistrarDirective -->
<g id="node2" class="node">
<title>TemplateRegistrarDirective</title>
<polygon fill="#ffffb3" stroke="black" points="200.26,-122 27.74,-122 27.74,-86 200.26,-86 200.26,-122"/>
<text text-anchor="middle" x="114" y="-99.8" font-family="Times,serif" font-size="14.00">TemplateRegistrarDirective</text>
</g>
<!-- TemplateRegistrarDirective&#45;&gt;CeriousWidgetsModule -->
<g id="edge2" class="edge">
<title>TemplateRegistrarDirective&#45;&gt;CeriousWidgetsModule</title>
<path fill="none" stroke="black" d="M115,-122.11C115,-122.11 115,-140.99 115,-140.99"/>
<polygon fill="black" stroke="black" points="111.5,-140.99 115,-150.99 118.5,-140.99 111.5,-140.99"/>
</g>
<!-- GridComponent  -->
<g id="node4" class="node">
<title>GridComponent </title>
<polygon fill="#fb8072" stroke="black" points="328.49,-252 217.51,-252 217.51,-216 328.49,-216 328.49,-252"/>
<text text-anchor="middle" x="273" y="-229.8" font-family="Times,serif" font-size="14.00">GridComponent </text>
</g>
<!-- CeriousWidgetsModule&#45;&gt;GridComponent  -->
<g id="edge3" class="edge">
<title>CeriousWidgetsModule&#45;&gt;GridComponent </title>
<path fill="none" stroke="black" stroke-dasharray="5,2" d="M189.88,-186C222.82,-186 254.17,-186 254.17,-186 254.17,-186 254.17,-205.85 254.17,-205.85"/>
<polygon fill="black" stroke="black" points="250.67,-205.85 254.17,-215.85 257.67,-205.85 250.67,-205.85"/>
</g>
<!-- TemplateRegistrarDirective  -->
<g id="node5" class="node">
<title>TemplateRegistrarDirective </title>
<polygon fill="#fb8072" stroke="black" points="199.76,-252 24.24,-252 24.24,-216 199.76,-216 199.76,-252"/>
<text text-anchor="middle" x="112" y="-229.8" font-family="Times,serif" font-size="14.00">TemplateRegistrarDirective </text>
</g>
<!-- CeriousWidgetsModule&#45;&gt;TemplateRegistrarDirective  -->
<g id="edge4" class="edge">
<title>CeriousWidgetsModule&#45;&gt;TemplateRegistrarDirective </title>
<path fill="none" stroke="black" stroke-dasharray="5,2" d="M115,-187.11C115,-187.11 115,-205.99 115,-205.99"/>
<polygon fill="black" stroke="black" points="111.5,-205.99 115,-215.99 118.5,-205.99 111.5,-205.99"/>
</g>
<!-- GridBodyComponent -->
<g id="node6" class="node">
<title>GridBodyComponent</title>
<polygon fill="#ffffb3" stroke="black" points="4555.83,-122 4418.17,-122 4418.17,-86 4555.83,-86 4555.83,-122"/>
<text text-anchor="middle" x="4487" y="-99.8" font-family="Times,serif" font-size="14.00">GridBodyComponent</text>
</g>
<!-- GridComponentsModule -->
<g id="node27" class="node">
<title>GridComponentsModule</title>
<polygon fill="#8dd3c7" stroke="black" points="2513.98,-187 2510.98,-191 2489.98,-191 2486.98,-187 2358.02,-187 2358.02,-151 2513.98,-151 2513.98,-187"/>
<text text-anchor="middle" x="2436" y="-164.8" font-family="Times,serif" font-size="14.00">GridComponentsModule</text>
</g>
<!-- GridBodyComponent&#45;&gt;GridComponentsModule -->
<g id="edge5" class="edge">
<title>GridBodyComponent&#45;&gt;GridComponentsModule</title>
<path fill="none" stroke="black" d="M4426.76,-122.11C4426.76,-141.34 4426.76,-169 4426.76,-169 4426.76,-169 2524.04,-169 2524.04,-169"/>
<polygon fill="black" stroke="black" points="2524.04,-165.5 2514.04,-169 2524.04,-172.5 2524.04,-165.5"/>
</g>
<!-- GridColumnSizerComponent -->
<g id="node7" class="node">
<title>GridColumnSizerComponent</title>
<polygon fill="#ffffb3" stroke="black" points="4400.37,-122 4219.63,-122 4219.63,-86 4400.37,-86 4400.37,-122"/>
<text text-anchor="middle" x="4310" y="-99.8" font-family="Times,serif" font-size="14.00">GridColumnSizerComponent</text>
</g>
<!-- GridColumnSizerComponent&#45;&gt;GridComponentsModule -->
<g id="edge6" class="edge">
<title>GridColumnSizerComponent&#45;&gt;GridComponentsModule</title>
<path fill="none" stroke="black" d="M4226.38,-122.22C4226.38,-140.83 4226.38,-167 4226.38,-167 4226.38,-167 2524.08,-167 2524.08,-167"/>
<polygon fill="black" stroke="black" points="2524.08,-163.5 2514.08,-167 2524.08,-170.5 2524.08,-163.5"/>
</g>
<!-- GridFillerRowColumnComponent -->
<g id="node8" class="node">
<title>GridFillerRowColumnComponent</title>
<polygon fill="#ffffb3" stroke="black" points="4201.38,-122 3992.62,-122 3992.62,-86 4201.38,-86 4201.38,-122"/>
<text text-anchor="middle" x="4097" y="-99.8" font-family="Times,serif" font-size="14.00">GridFillerRowColumnComponent</text>
</g>
<!-- GridFillerRowColumnComponent&#45;&gt;GridComponentsModule -->
<g id="edge7" class="edge">
<title>GridFillerRowColumnComponent&#45;&gt;GridComponentsModule</title>
<path fill="none" stroke="black" d="M3997.6,-122.3C3997.6,-140.27 3997.6,-165 3997.6,-165 3997.6,-165 2524.24,-165 2524.24,-165"/>
<polygon fill="black" stroke="black" points="2524.24,-161.5 2514.24,-165 2524.24,-168.5 2524.24,-161.5"/>
</g>
<!-- GridFillerRowComponent -->
<g id="node9" class="node">
<title>GridFillerRowComponent</title>
<polygon fill="#ffffb3" stroke="black" points="3974.76,-122 3811.24,-122 3811.24,-86 3974.76,-86 3974.76,-122"/>
<text text-anchor="middle" x="3893" y="-99.8" font-family="Times,serif" font-size="14.00">GridFillerRowComponent</text>
</g>
<!-- GridFillerRowComponent&#45;&gt;GridComponentsModule -->
<g id="edge8" class="edge">
<title>GridFillerRowComponent&#45;&gt;GridComponentsModule</title>
<path fill="none" stroke="black" d="M3826.27,-122.02C3826.27,-139.37 3826.27,-163 3826.27,-163 3826.27,-163 2524.23,-163 2524.23,-163"/>
<polygon fill="black" stroke="black" points="2524.23,-159.5 2514.23,-163 2524.23,-166.5 2524.23,-159.5"/>
</g>
<!-- GridFillerRowFeatureColumnComponent -->
<g id="node10" class="node">
<title>GridFillerRowFeatureColumnComponent</title>
<polygon fill="#ffffb3" stroke="black" points="3793.36,-122 3542.64,-122 3542.64,-86 3793.36,-86 3793.36,-122"/>
<text text-anchor="middle" x="3668" y="-99.8" font-family="Times,serif" font-size="14.00">GridFillerRowFeatureColumnComponent</text>
</g>
<!-- GridFillerRowFeatureColumnComponent&#45;&gt;GridComponentsModule -->
<g id="edge9" class="edge">
<title>GridFillerRowFeatureColumnComponent&#45;&gt;GridComponentsModule</title>
<path fill="none" stroke="black" d="M3553.95,-122.03C3553.95,-139.06 3553.95,-162 3553.95,-162 3553.95,-162 2524.17,-162 2524.17,-162"/>
<polygon fill="black" stroke="black" points="2524.17,-158.5 2514.17,-162 2524.17,-165.5 2524.17,-158.5"/>
</g>
<!-- GridFooterColumnComponent -->
<g id="node11" class="node">
<title>GridFooterColumnComponent</title>
<polygon fill="#ffffb3" stroke="black" points="3524.16,-122 3335.84,-122 3335.84,-86 3524.16,-86 3524.16,-122"/>
<text text-anchor="middle" x="3430" y="-99.8" font-family="Times,serif" font-size="14.00">GridFooterColumnComponent</text>
</g>
<!-- GridFooterColumnComponent&#45;&gt;GridComponentsModule -->
<g id="edge10" class="edge">
<title>GridFooterColumnComponent&#45;&gt;GridComponentsModule</title>
<path fill="none" stroke="black" d="M3344.3,-122.03C3344.3,-138.4 3344.3,-160 3344.3,-160 3344.3,-160 2524.23,-160 2524.23,-160"/>
<polygon fill="black" stroke="black" points="2524.23,-156.5 2514.23,-160 2524.23,-163.5 2524.23,-156.5"/>
</g>
<!-- GridFooterComponent -->
<g id="node12" class="node">
<title>GridFooterComponent</title>
<polygon fill="#ffffb3" stroke="black" points="3317.54,-122 3174.46,-122 3174.46,-86 3317.54,-86 3317.54,-122"/>
<text text-anchor="middle" x="3246" y="-99.8" font-family="Times,serif" font-size="14.00">GridFooterComponent</text>
</g>
<!-- GridFooterComponent&#45;&gt;GridComponentsModule -->
<g id="edge11" class="edge">
<title>GridFooterComponent&#45;&gt;GridComponentsModule</title>
<path fill="none" stroke="black" d="M3180.86,-122.28C3180.86,-137.95 3180.86,-158 3180.86,-158 3180.86,-158 2524.3,-158 2524.3,-158"/>
<polygon fill="black" stroke="black" points="2524.3,-154.5 2514.3,-158 2524.3,-161.5 2524.3,-154.5"/>
</g>
<!-- GridFooterFeatureColumnComponent -->
<g id="node13" class="node">
<title>GridFooterFeatureColumnComponent</title>
<polygon fill="#ffffb3" stroke="black" points="3156.13,-122 2925.87,-122 2925.87,-86 3156.13,-86 3156.13,-122"/>
<text text-anchor="middle" x="3041" y="-99.8" font-family="Times,serif" font-size="14.00">GridFooterFeatureColumnComponent</text>
</g>
<!-- GridFooterFeatureColumnComponent&#45;&gt;GridComponentsModule -->
<g id="edge12" class="edge">
<title>GridFooterFeatureColumnComponent&#45;&gt;GridComponentsModule</title>
<path fill="none" stroke="black" d="M2930.31,-122.24C2930.31,-137.57 2930.31,-157 2930.31,-157 2930.31,-157 2524.05,-157 2524.05,-157"/>
<polygon fill="black" stroke="black" points="2524.05,-153.5 2514.05,-157 2524.05,-160.5 2524.05,-153.5"/>
</g>
<!-- GridFooterRowComponent -->
<g id="node14" class="node">
<title>GridFooterRowComponent</title>
<polygon fill="#ffffb3" stroke="black" points="2907.98,-122 2738.02,-122 2738.02,-86 2907.98,-86 2907.98,-122"/>
<text text-anchor="middle" x="2823" y="-99.8" font-family="Times,serif" font-size="14.00">GridFooterRowComponent</text>
</g>
<!-- GridFooterRowComponent&#45;&gt;GridComponentsModule -->
<g id="edge13" class="edge">
<title>GridFooterRowComponent&#45;&gt;GridComponentsModule</title>
<path fill="none" stroke="black" d="M2853.08,-122.12C2853.08,-136.78 2853.08,-155 2853.08,-155 2853.08,-155 2524.45,-155 2524.45,-155"/>
<polygon fill="black" stroke="black" points="2524.45,-151.5 2514.45,-155 2524.45,-158.5 2524.45,-151.5"/>
</g>
<!-- GridHeaderColumnComponent -->
<g id="node15" class="node">
<title>GridHeaderColumnComponent</title>
<polygon fill="#ffffb3" stroke="black" points="2720.02,-122 2527.98,-122 2527.98,-86 2720.02,-86 2720.02,-122"/>
<text text-anchor="middle" x="2624" y="-99.8" font-family="Times,serif" font-size="14.00">GridHeaderColumnComponent</text>
</g>
<!-- GridHeaderColumnComponent&#45;&gt;GridComponentsModule -->
<g id="edge14" class="edge">
<title>GridHeaderColumnComponent&#45;&gt;GridComponentsModule</title>
<path fill="none" stroke="black" d="M2656.5,-122.25C2656.5,-136.18 2656.5,-153 2656.5,-153 2656.5,-153 2524.05,-153 2524.05,-153"/>
<polygon fill="black" stroke="black" points="2524.05,-149.5 2514.05,-153 2524.05,-156.5 2524.05,-149.5"/>
</g>
<!-- GridHeaderComponent -->
<g id="node16" class="node">
<title>GridHeaderComponent</title>
<polygon fill="#ffffb3" stroke="black" points="2509.9,-122 2362.1,-122 2362.1,-86 2509.9,-86 2509.9,-122"/>
<text text-anchor="middle" x="2436" y="-99.8" font-family="Times,serif" font-size="14.00">GridHeaderComponent</text>
</g>
<!-- GridHeaderComponent&#45;&gt;GridComponentsModule -->
<g id="edge15" class="edge">
<title>GridHeaderComponent&#45;&gt;GridComponentsModule</title>
<path fill="none" stroke="black" d="M2436,-122.11C2436,-122.11 2436,-140.99 2436,-140.99"/>
<polygon fill="black" stroke="black" points="2432.5,-140.99 2436,-150.99 2439.5,-140.99 2432.5,-140.99"/>
</g>
<!-- GridHeaderFeatureColumnComponent -->
<g id="node17" class="node">
<title>GridHeaderFeatureColumnComponent</title>
<polygon fill="#ffffb3" stroke="black" points="2344.5,-122 2109.5,-122 2109.5,-86 2344.5,-86 2344.5,-122"/>
<text text-anchor="middle" x="2227" y="-99.8" font-family="Times,serif" font-size="14.00">GridHeaderFeatureColumnComponent</text>
</g>
<!-- GridHeaderFeatureColumnComponent&#45;&gt;GridComponentsModule -->
<g id="edge16" class="edge">
<title>GridHeaderFeatureColumnComponent&#45;&gt;GridComponentsModule</title>
<path fill="none" stroke="black" d="M2265.25,-122.25C2265.25,-136.18 2265.25,-153 2265.25,-153 2265.25,-153 2347.62,-153 2347.62,-153"/>
<polygon fill="black" stroke="black" points="2347.62,-156.5 2357.62,-153 2347.62,-149.5 2347.62,-156.5"/>
</g>
<!-- GridHeaderRowComponent -->
<g id="node18" class="node">
<title>GridHeaderRowComponent</title>
<polygon fill="#ffffb3" stroke="black" points="2091.84,-122 1918.16,-122 1918.16,-86 2091.84,-86 2091.84,-122"/>
<text text-anchor="middle" x="2005" y="-99.8" font-family="Times,serif" font-size="14.00">GridHeaderRowComponent</text>
</g>
<!-- GridHeaderRowComponent&#45;&gt;GridComponentsModule -->
<g id="edge17" class="edge">
<title>GridHeaderRowComponent&#45;&gt;GridComponentsModule</title>
<path fill="none" stroke="black" d="M2030.47,-122.12C2030.47,-136.78 2030.47,-155 2030.47,-155 2030.47,-155 2347.81,-155 2347.81,-155"/>
<polygon fill="black" stroke="black" points="2347.81,-158.5 2357.81,-155 2347.81,-151.5 2347.81,-158.5"/>
</g>
<!-- GridMenuBarComponent -->
<g id="node19" class="node">
<title>GridMenuBarComponent</title>
<polygon fill="#ffffb3" stroke="black" points="1899.86,-122 1740.14,-122 1740.14,-86 1899.86,-86 1899.86,-122"/>
<text text-anchor="middle" x="1820" y="-99.8" font-family="Times,serif" font-size="14.00">GridMenuBarComponent</text>
</g>
<!-- GridMenuBarComponent&#45;&gt;GridComponentsModule -->
<g id="edge18" class="edge">
<title>GridMenuBarComponent&#45;&gt;GridComponentsModule</title>
<path fill="none" stroke="black" d="M1895.81,-122.19C1895.81,-137.18 1895.81,-156 1895.81,-156 1895.81,-156 2347.74,-156 2347.74,-156"/>
<polygon fill="black" stroke="black" points="2347.74,-159.5 2357.74,-156 2347.74,-152.5 2347.74,-159.5"/>
</g>
<!-- GridNestedRowColumnComponent -->
<g id="node20" class="node">
<title>GridNestedRowColumnComponent</title>
<polygon fill="#ffffb3" stroke="black" points="1721.92,-122 1504.08,-122 1504.08,-86 1721.92,-86 1721.92,-122"/>
<text text-anchor="middle" x="1613" y="-99.8" font-family="Times,serif" font-size="14.00">GridNestedRowColumnComponent</text>
</g>
<!-- GridNestedRowColumnComponent&#45;&gt;GridComponentsModule -->
<g id="edge19" class="edge">
<title>GridNestedRowColumnComponent&#45;&gt;GridComponentsModule</title>
<path fill="none" stroke="black" d="M1716.09,-122.28C1716.09,-137.95 1716.09,-158 1716.09,-158 1716.09,-158 2347.93,-158 2347.93,-158"/>
<polygon fill="black" stroke="black" points="2347.93,-161.5 2357.93,-158 2347.93,-154.5 2347.93,-161.5"/>
</g>
<!-- GridNestedRowComponent -->
<g id="node21" class="node">
<title>GridNestedRowComponent</title>
<polygon fill="#ffffb3" stroke="black" points="1486.3,-122 1313.7,-122 1313.7,-86 1486.3,-86 1486.3,-122"/>
<text text-anchor="middle" x="1400" y="-99.8" font-family="Times,serif" font-size="14.00">GridNestedRowComponent</text>
</g>
<!-- GridNestedRowComponent&#45;&gt;GridComponentsModule -->
<g id="edge20" class="edge">
<title>GridNestedRowComponent&#45;&gt;GridComponentsModule</title>
<path fill="none" stroke="black" d="M1479.03,-122.01C1479.03,-138.05 1479.03,-159 1479.03,-159 1479.03,-159 2347.69,-159 2347.69,-159"/>
<polygon fill="black" stroke="black" points="2347.69,-162.5 2357.69,-159 2347.69,-155.5 2347.69,-162.5"/>
</g>
<!-- GridPagerComponent -->
<g id="node22" class="node">
<title>GridPagerComponent</title>
<polygon fill="#ffffb3" stroke="black" points="1295.36,-122 1156.64,-122 1156.64,-86 1295.36,-86 1295.36,-122"/>
<text text-anchor="middle" x="1226" y="-99.8" font-family="Times,serif" font-size="14.00">GridPagerComponent</text>
</g>
<!-- GridPagerComponent&#45;&gt;GridComponentsModule -->
<g id="edge21" class="edge">
<title>GridPagerComponent&#45;&gt;GridComponentsModule</title>
<path fill="none" stroke="black" d="M1286.81,-122.04C1286.81,-138.73 1286.81,-161 1286.81,-161 1286.81,-161 2347.91,-161 2347.91,-161"/>
<polygon fill="black" stroke="black" points="2347.91,-164.5 2357.91,-161 2347.91,-157.5 2347.91,-164.5"/>
</g>
<!-- GridRowColumnComponent -->
<g id="node23" class="node">
<title>GridRowColumnComponent</title>
<polygon fill="#ffffb3" stroke="black" points="1138.05,-122 959.95,-122 959.95,-86 1138.05,-86 1138.05,-122"/>
<text text-anchor="middle" x="1049" y="-99.8" font-family="Times,serif" font-size="14.00">GridRowColumnComponent</text>
</g>
<!-- GridRowColumnComponent&#45;&gt;GridComponentsModule -->
<g id="edge22" class="edge">
<title>GridRowColumnComponent&#45;&gt;GridComponentsModule</title>
<path fill="none" stroke="black" d="M1126.92,-122.03C1126.92,-139.06 1126.92,-162 1126.92,-162 1126.92,-162 2347.55,-162 2347.55,-162"/>
<polygon fill="black" stroke="black" points="2347.55,-165.5 2357.55,-162 2347.55,-158.5 2347.55,-165.5"/>
</g>
<!-- GridRowComponent -->
<g id="node24" class="node">
<title>GridRowComponent</title>
<polygon fill="#ffffb3" stroke="black" points="941.93,-122 808.07,-122 808.07,-86 941.93,-86 941.93,-122"/>
<text text-anchor="middle" x="875" y="-99.8" font-family="Times,serif" font-size="14.00">GridRowComponent</text>
</g>
<!-- GridRowComponent&#45;&gt;GridComponentsModule -->
<g id="edge23" class="edge">
<title>GridRowComponent&#45;&gt;GridComponentsModule</title>
<path fill="none" stroke="black" d="M927.22,-122C927.22,-139.68 927.22,-164 927.22,-164 927.22,-164 2347.8,-164 2347.8,-164"/>
<polygon fill="black" stroke="black" points="2347.8,-167.5 2357.8,-164 2347.8,-160.5 2347.8,-167.5"/>
</g>
<!-- GridRowFeatureColumnComponent -->
<g id="node25" class="node">
<title>GridRowFeatureColumnComponent</title>
<polygon fill="#ffffb3" stroke="black" points="790.03,-122 569.97,-122 569.97,-86 790.03,-86 790.03,-122"/>
<text text-anchor="middle" x="680" y="-99.8" font-family="Times,serif" font-size="14.00">GridRowFeatureColumnComponent</text>
</g>
<!-- GridRowFeatureColumnComponent&#45;&gt;GridComponentsModule -->
<g id="edge24" class="edge">
<title>GridRowFeatureColumnComponent&#45;&gt;GridComponentsModule</title>
<path fill="none" stroke="black" d="M785.9,-122.27C785.9,-140.56 785.9,-166 785.9,-166 785.9,-166 2347.8,-166 2347.8,-166"/>
<polygon fill="black" stroke="black" points="2347.8,-169.5 2357.8,-166 2347.8,-162.5 2347.8,-169.5"/>
</g>
<!-- GridScrollerComponent -->
<g id="node26" class="node">
<title>GridScrollerComponent</title>
<polygon fill="#ffffb3" stroke="black" points="551.8,-122 400.2,-122 400.2,-86 551.8,-86 551.8,-122"/>
<text text-anchor="middle" x="476" y="-99.8" font-family="Times,serif" font-size="14.00">GridScrollerComponent</text>
</g>
<!-- GridScrollerComponent&#45;&gt;GridComponentsModule -->
<g id="edge25" class="edge">
<title>GridScrollerComponent&#45;&gt;GridComponentsModule</title>
<path fill="none" stroke="black" d="M545.82,-122.22C545.82,-140.83 545.82,-167 545.82,-167 545.82,-167 2347.78,-167 2347.78,-167"/>
<polygon fill="black" stroke="black" points="2347.78,-170.5 2357.78,-167 2347.78,-163.5 2347.78,-170.5"/>
</g>
<!-- GridBodyComponent  -->
<g id="node28" class="node">
<title>GridBodyComponent </title>
<polygon fill="#fb8072" stroke="black" points="4594.33,-252 4453.67,-252 4453.67,-216 4594.33,-216 4594.33,-252"/>
<text text-anchor="middle" x="4524" y="-229.8" font-family="Times,serif" font-size="14.00">GridBodyComponent </text>
</g>
<!-- GridComponentsModule&#45;&gt;GridBodyComponent  -->
<g id="edge26" class="edge">
<title>GridComponentsModule&#45;&gt;GridBodyComponent </title>
<path fill="none" stroke="black" stroke-dasharray="5,2" d="M2514.25,-170C2891.53,-170 4504.62,-170 4504.62,-170 4504.62,-170 4504.62,-205.83 4504.62,-205.83"/>
<polygon fill="black" stroke="black" points="4501.13,-205.83 4504.62,-215.83 4508.13,-205.83 4501.13,-205.83"/>
</g>
<!-- GridColumnSizerComponent  -->
<g id="node29" class="node">
<title>GridColumnSizerComponent </title>
<polygon fill="#fb8072" stroke="black" points="4435.37,-252 4250.63,-252 4250.63,-216 4435.37,-216 4435.37,-252"/>
<text text-anchor="middle" x="4343" y="-229.8" font-family="Times,serif" font-size="14.00">GridColumnSizerComponent </text>
</g>
<!-- GridComponentsModule&#45;&gt;GridColumnSizerComponent  -->
<g id="edge27" class="edge">
<title>GridComponentsModule&#45;&gt;GridColumnSizerComponent </title>
<path fill="none" stroke="black" stroke-dasharray="5,2" d="M2514.19,-172C2870.8,-172 4325.62,-172 4325.62,-172 4325.62,-172 4325.62,-205.73 4325.62,-205.73"/>
<polygon fill="black" stroke="black" points="4322.13,-205.73 4325.62,-215.73 4329.13,-205.73 4322.13,-205.73"/>
</g>
<!-- GridFillerRowColumnComponent  -->
<g id="node30" class="node">
<title>GridFillerRowColumnComponent </title>
<polygon fill="#fb8072" stroke="black" points="4233.38,-252 4020.62,-252 4020.62,-216 4233.38,-216 4233.38,-252"/>
<text text-anchor="middle" x="4127" y="-229.8" font-family="Times,serif" font-size="14.00">GridFillerRowColumnComponent </text>
</g>
<!-- GridComponentsModule&#45;&gt;GridFillerRowColumnComponent  -->
<g id="edge28" class="edge">
<title>GridComponentsModule&#45;&gt;GridFillerRowColumnComponent </title>
<path fill="none" stroke="black" stroke-dasharray="5,2" d="M2513.99,-174C2844.3,-174 4111.12,-174 4111.12,-174 4111.12,-174 4111.12,-206 4111.12,-206"/>
<polygon fill="black" stroke="black" points="4107.63,-206 4111.12,-216 4114.63,-206 4107.63,-206"/>
</g>
<!-- GridFillerRowComponent  -->
<g id="node31" class="node">
<title>GridFillerRowComponent </title>
<polygon fill="#fb8072" stroke="black" points="4002.76,-252 3835.24,-252 3835.24,-216 4002.76,-216 4002.76,-252"/>
<text text-anchor="middle" x="3919" y="-229.8" font-family="Times,serif" font-size="14.00">GridFillerRowComponent </text>
</g>
<!-- GridComponentsModule&#45;&gt;GridFillerRowComponent  -->
<g id="edge29" class="edge">
<title>GridComponentsModule&#45;&gt;GridFillerRowComponent </title>
<path fill="none" stroke="black" stroke-dasharray="5,2" d="M2514.21,-175C2818.29,-175 3905.12,-175 3905.12,-175 3905.12,-175 3905.12,-205.98 3905.12,-205.98"/>
<polygon fill="black" stroke="black" points="3901.63,-205.98 3905.12,-215.98 3908.63,-205.98 3901.63,-205.98"/>
</g>
<!-- GridFillerRowFeatureColumnComponent  -->
<g id="node32" class="node">
<title>GridFillerRowFeatureColumnComponent </title>
<polygon fill="#fb8072" stroke="black" points="3817.36,-252 3562.64,-252 3562.64,-216 3817.36,-216 3817.36,-252"/>
<text text-anchor="middle" x="3690" y="-229.8" font-family="Times,serif" font-size="14.00">GridFillerRowFeatureColumnComponent </text>
</g>
<!-- GridComponentsModule&#45;&gt;GridFillerRowFeatureColumnComponent  -->
<g id="edge30" class="edge">
<title>GridComponentsModule&#45;&gt;GridFillerRowFeatureColumnComponent </title>
<path fill="none" stroke="black" stroke-dasharray="5,2" d="M2514.17,-177C2786.66,-177 3678.12,-177 3678.12,-177 3678.12,-177 3678.12,-205.96 3678.12,-205.96"/>
<polygon fill="black" stroke="black" points="3674.63,-205.96 3678.12,-215.96 3681.63,-205.96 3674.63,-205.96"/>
</g>
<!-- GridFooterColumnComponent  -->
<g id="node33" class="node">
<title>GridFooterColumnComponent </title>
<polygon fill="#fb8072" stroke="black" points="3545.16,-252 3352.84,-252 3352.84,-216 3545.16,-216 3545.16,-252"/>
<text text-anchor="middle" x="3449" y="-229.8" font-family="Times,serif" font-size="14.00">GridFooterColumnComponent </text>
</g>
<!-- GridComponentsModule&#45;&gt;GridFooterColumnComponent  -->
<g id="edge31" class="edge">
<title>GridComponentsModule&#45;&gt;GridFooterColumnComponent </title>
<path fill="none" stroke="black" stroke-dasharray="5,2" d="M2514.26,-179C2750.22,-179 3438.62,-179 3438.62,-179 3438.62,-179 3438.62,-205.99 3438.62,-205.99"/>
<polygon fill="black" stroke="black" points="3435.13,-205.99 3438.62,-215.99 3442.13,-205.99 3435.13,-205.99"/>
</g>
<!-- GridFooterComponent  -->
<g id="node34" class="node">
<title>GridFooterComponent </title>
<polygon fill="#fb8072" stroke="black" points="3334.54,-252 3187.46,-252 3187.46,-216 3334.54,-216 3334.54,-252"/>
<text text-anchor="middle" x="3261" y="-229.8" font-family="Times,serif" font-size="14.00">GridFooterComponent </text>
</g>
<!-- GridComponentsModule&#45;&gt;GridFooterComponent  -->
<g id="edge32" class="edge">
<title>GridComponentsModule&#45;&gt;GridFooterComponent </title>
<path fill="none" stroke="black" stroke-dasharray="5,2" d="M2514.3,-181C2718.7,-181 3252.62,-181 3252.62,-181 3252.62,-181 3252.62,-205.76 3252.62,-205.76"/>
<polygon fill="black" stroke="black" points="3249.13,-205.76 3252.62,-215.76 3256.13,-205.76 3249.13,-205.76"/>
</g>
<!-- GridFooterFeatureColumnComponent  -->
<g id="node35" class="node">
<title>GridFooterFeatureColumnComponent </title>
<polygon fill="#fb8072" stroke="black" points="3169.13,-252 2934.87,-252 2934.87,-216 3169.13,-216 3169.13,-252"/>
<text text-anchor="middle" x="3052" y="-229.8" font-family="Times,serif" font-size="14.00">GridFooterFeatureColumnComponent </text>
</g>
<!-- GridComponentsModule&#45;&gt;GridFooterFeatureColumnComponent  -->
<g id="edge33" class="edge">
<title>GridComponentsModule&#45;&gt;GridFooterFeatureColumnComponent </title>
<path fill="none" stroke="black" stroke-dasharray="5,2" d="M2514.14,-182C2678.64,-182 3045.62,-182 3045.62,-182 3045.62,-182 3045.62,-205.81 3045.62,-205.81"/>
<polygon fill="black" stroke="black" points="3042.13,-205.81 3045.62,-215.81 3049.13,-205.81 3042.13,-205.81"/>
</g>
<!-- GridFooterRowComponent  -->
<g id="node36" class="node">
<title>GridFooterRowComponent </title>
<polygon fill="#fb8072" stroke="black" points="2916.98,-252 2743.02,-252 2743.02,-216 2916.98,-216 2916.98,-252"/>
<text text-anchor="middle" x="2830" y="-229.8" font-family="Times,serif" font-size="14.00">GridFooterRowComponent </text>
</g>
<!-- GridComponentsModule&#45;&gt;GridFooterRowComponent  -->
<g id="edge34" class="edge">
<title>GridComponentsModule&#45;&gt;GridFooterRowComponent </title>
<path fill="none" stroke="black" stroke-dasharray="5,2" d="M2514.14,-184C2620.61,-184 2798.17,-184 2798.17,-184 2798.17,-184 2798.17,-205.95 2798.17,-205.95"/>
<polygon fill="black" stroke="black" points="2794.67,-205.95 2798.17,-215.95 2801.67,-205.95 2794.67,-205.95"/>
</g>
<!-- GridHeaderColumnComponent  -->
<g id="node37" class="node">
<title>GridHeaderColumnComponent </title>
<polygon fill="#fb8072" stroke="black" points="2725.02,-252 2528.98,-252 2528.98,-216 2725.02,-216 2725.02,-252"/>
<text text-anchor="middle" x="2627" y="-229.8" font-family="Times,serif" font-size="14.00">GridHeaderColumnComponent </text>
</g>
<!-- GridComponentsModule&#45;&gt;GridHeaderColumnComponent  -->
<g id="edge35" class="edge">
<title>GridComponentsModule&#45;&gt;GridHeaderColumnComponent </title>
<path fill="none" stroke="black" stroke-dasharray="5,2" d="M2514.37,-186C2553.56,-186 2592.75,-186 2592.75,-186 2592.75,-186 2592.75,-205.85 2592.75,-205.85"/>
<polygon fill="black" stroke="black" points="2589.25,-205.85 2592.75,-215.85 2596.25,-205.85 2589.25,-205.85"/>
</g>
<!-- GridHeaderComponent  -->
<g id="node38" class="node">
<title>GridHeaderComponent </title>
<polygon fill="#fb8072" stroke="black" points="2511.4,-252 2360.6,-252 2360.6,-216 2511.4,-216 2511.4,-252"/>
<text text-anchor="middle" x="2436" y="-229.8" font-family="Times,serif" font-size="14.00">GridHeaderComponent </text>
</g>
<!-- GridComponentsModule&#45;&gt;GridHeaderComponent  -->
<g id="edge36" class="edge">
<title>GridComponentsModule&#45;&gt;GridHeaderComponent </title>
<path fill="none" stroke="black" stroke-dasharray="5,2" d="M2436,-187.11C2436,-187.11 2436,-205.99 2436,-205.99"/>
<polygon fill="black" stroke="black" points="2432.5,-205.99 2436,-215.99 2439.5,-205.99 2432.5,-205.99"/>
</g>
<!-- GridHeaderFeatureColumnComponent  -->
<g id="node39" class="node">
<title>GridHeaderFeatureColumnComponent </title>
<polygon fill="#fb8072" stroke="black" points="2343,-252 2105,-252 2105,-216 2343,-216 2343,-252"/>
<text text-anchor="middle" x="2224" y="-229.8" font-family="Times,serif" font-size="14.00">GridHeaderFeatureColumnComponent </text>
</g>
<!-- GridComponentsModule&#45;&gt;GridHeaderFeatureColumnComponent  -->
<g id="edge37" class="edge">
<title>GridComponentsModule&#45;&gt;GridHeaderFeatureColumnComponent </title>
<path fill="none" stroke="black" stroke-dasharray="5,2" d="M2357.71,-183C2284.87,-183 2187.5,-183 2187.5,-183 2187.5,-183 2187.5,-205.88 2187.5,-205.88"/>
<polygon fill="black" stroke="black" points="2184,-205.88 2187.5,-215.88 2191,-205.88 2184,-205.88"/>
</g>
<!-- GridHeaderRowComponent  -->
<g id="node40" class="node">
<title>GridHeaderRowComponent </title>
<polygon fill="#fb8072" stroke="black" points="2086.84,-252 1909.16,-252 1909.16,-216 2086.84,-216 2086.84,-252"/>
<text text-anchor="middle" x="1998" y="-229.8" font-family="Times,serif" font-size="14.00">GridHeaderRowComponent </text>
</g>
<!-- GridComponentsModule&#45;&gt;GridHeaderRowComponent  -->
<g id="edge38" class="edge">
<title>GridComponentsModule&#45;&gt;GridHeaderRowComponent </title>
<path fill="none" stroke="black" stroke-dasharray="5,2" d="M2357.94,-181C2226.28,-181 1974.28,-181 1974.28,-181 1974.28,-181 1974.28,-205.76 1974.28,-205.76"/>
<polygon fill="black" stroke="black" points="1970.78,-205.76 1974.28,-215.76 1977.78,-205.76 1970.78,-205.76"/>
</g>
<!-- GridMenuBarComponent  -->
<g id="node41" class="node">
<title>GridMenuBarComponent </title>
<polygon fill="#fb8072" stroke="black" points="1891.86,-252 1728.14,-252 1728.14,-216 1891.86,-216 1891.86,-252"/>
<text text-anchor="middle" x="1810" y="-229.8" font-family="Times,serif" font-size="14.00">GridMenuBarComponent </text>
</g>
<!-- GridComponentsModule&#45;&gt;GridMenuBarComponent  -->
<g id="edge39" class="edge">
<title>GridComponentsModule&#45;&gt;GridMenuBarComponent </title>
<path fill="none" stroke="black" stroke-dasharray="5,2" d="M2357.77,-180C2191.06,-180 1815.88,-180 1815.88,-180 1815.88,-180 1815.88,-205.72 1815.88,-205.72"/>
<polygon fill="black" stroke="black" points="1812.38,-205.72 1815.88,-215.72 1819.38,-205.72 1812.38,-205.72"/>
</g>
<!-- GridNestedRowColumnComponent  -->
<g id="node42" class="node">
<title>GridNestedRowColumnComponent </title>
<polygon fill="#fb8072" stroke="black" points="1710.42,-252 1489.58,-252 1489.58,-216 1710.42,-216 1710.42,-252"/>
<text text-anchor="middle" x="1600" y="-229.8" font-family="Times,serif" font-size="14.00">GridNestedRowColumnComponent </text>
</g>
<!-- GridComponentsModule&#45;&gt;GridNestedRowColumnComponent  -->
<g id="edge40" class="edge">
<title>GridComponentsModule&#45;&gt;GridNestedRowColumnComponent </title>
<path fill="none" stroke="black" stroke-dasharray="5,2" d="M2357.67,-178C2151.11,-178 1607.38,-178 1607.38,-178 1607.38,-178 1607.38,-205.97 1607.38,-205.97"/>
<polygon fill="black" stroke="black" points="1603.88,-205.97 1607.38,-215.97 1610.88,-205.97 1603.88,-205.97"/>
</g>
<!-- GridNestedRowComponent  -->
<g id="node43" class="node">
<title>GridNestedRowComponent </title>
<polygon fill="#fb8072" stroke="black" points="1471.8,-252 1296.2,-252 1296.2,-216 1471.8,-216 1471.8,-252"/>
<text text-anchor="middle" x="1384" y="-229.8" font-family="Times,serif" font-size="14.00">GridNestedRowComponent </text>
</g>
<!-- GridComponentsModule&#45;&gt;GridNestedRowComponent  -->
<g id="edge41" class="edge">
<title>GridComponentsModule&#45;&gt;GridNestedRowComponent </title>
<path fill="none" stroke="black" stroke-dasharray="5,2" d="M2357.6,-177C2115.01,-177 1392.88,-177 1392.88,-177 1392.88,-177 1392.88,-205.96 1392.88,-205.96"/>
<polygon fill="black" stroke="black" points="1389.38,-205.96 1392.88,-215.96 1396.38,-205.96 1389.38,-205.96"/>
</g>
<!-- GridPagerComponent  -->
<g id="node44" class="node">
<title>GridPagerComponent </title>
<polygon fill="#fb8072" stroke="black" points="1278.36,-252 1135.64,-252 1135.64,-216 1278.36,-216 1278.36,-252"/>
<text text-anchor="middle" x="1207" y="-229.8" font-family="Times,serif" font-size="14.00">GridPagerComponent </text>
</g>
<!-- GridComponentsModule&#45;&gt;GridPagerComponent  -->
<g id="edge42" class="edge">
<title>GridComponentsModule&#45;&gt;GridPagerComponent </title>
<path fill="none" stroke="black" stroke-dasharray="5,2" d="M2357.92,-175C2088.95,-175 1217.38,-175 1217.38,-175 1217.38,-175 1217.38,-205.98 1217.38,-205.98"/>
<polygon fill="black" stroke="black" points="1213.88,-205.98 1217.38,-215.98 1220.88,-205.98 1213.88,-205.98"/>
</g>
<!-- GridRowColumnComponent  -->
<g id="node45" class="node">
<title>GridRowColumnComponent </title>
<polygon fill="#fb8072" stroke="black" points="1118.05,-252 935.95,-252 935.95,-216 1118.05,-216 1118.05,-252"/>
<text text-anchor="middle" x="1027" y="-229.8" font-family="Times,serif" font-size="14.00">GridRowColumnComponent </text>
</g>
<!-- GridComponentsModule&#45;&gt;GridRowColumnComponent  -->
<g id="edge43" class="edge">
<title>GridComponentsModule&#45;&gt;GridRowColumnComponent </title>
<path fill="none" stroke="black" stroke-dasharray="5,2" d="M2357.89,-173C2063.66,-173 1038.88,-173 1038.88,-173 1038.88,-173 1038.88,-205.7 1038.88,-205.7"/>
<polygon fill="black" stroke="black" points="1035.38,-205.7 1038.88,-215.7 1042.38,-205.7 1035.38,-205.7"/>
</g>
<!-- GridRowComponent  -->
<g id="node46" class="node">
<title>GridRowComponent </title>
<polygon fill="#fb8072" stroke="black" points="918.43,-252 781.57,-252 781.57,-216 918.43,-216 918.43,-252"/>
<text text-anchor="middle" x="850" y="-229.8" font-family="Times,serif" font-size="14.00">GridRowComponent </text>
</g>
<!-- GridComponentsModule&#45;&gt;GridRowComponent  -->
<g id="edge44" class="edge">
<title>GridComponentsModule&#45;&gt;GridRowComponent </title>
<path fill="none" stroke="black" stroke-dasharray="5,2" d="M2358.01,-172C2040.69,-172 863.38,-172 863.38,-172 863.38,-172 863.38,-205.73 863.38,-205.73"/>
<polygon fill="black" stroke="black" points="859.88,-205.73 863.38,-215.73 866.88,-205.73 859.88,-205.73"/>
</g>
<!-- GridRowFeatureColumnComponent  -->
<g id="node47" class="node">
<title>GridRowFeatureColumnComponent </title>
<polygon fill="#fb8072" stroke="black" points="764.03,-252 539.97,-252 539.97,-216 764.03,-216 764.03,-252"/>
<text text-anchor="middle" x="652" y="-229.8" font-family="Times,serif" font-size="14.00">GridRowFeatureColumnComponent </text>
</g>
<!-- GridComponentsModule&#45;&gt;GridRowFeatureColumnComponent  -->
<g id="edge45" class="edge">
<title>GridComponentsModule&#45;&gt;GridRowFeatureColumnComponent </title>
<path fill="none" stroke="black" stroke-dasharray="5,2" d="M2357.99,-170C2016.08,-170 666.88,-170 666.88,-170 666.88,-170 666.88,-205.83 666.88,-205.83"/>
<polygon fill="black" stroke="black" points="663.38,-205.83 666.88,-215.83 670.38,-205.83 663.38,-205.83"/>
</g>
<!-- GridScrollerComponent  -->
<g id="node48" class="node">
<title>GridScrollerComponent </title>
<polygon fill="#fb8072" stroke="black" points="522.3,-252 367.7,-252 367.7,-216 522.3,-216 522.3,-252"/>
<text text-anchor="middle" x="445" y="-229.8" font-family="Times,serif" font-size="14.00">GridScrollerComponent </text>
</g>
<!-- GridComponentsModule&#45;&gt;GridScrollerComponent  -->
<g id="edge46" class="edge">
<title>GridComponentsModule&#45;&gt;GridScrollerComponent </title>
<path fill="none" stroke="black" stroke-dasharray="5,2" d="M2357.98,-169C1991.81,-169 461.38,-169 461.38,-169 461.38,-169 461.38,-205.89 461.38,-205.89"/>
<polygon fill="black" stroke="black" points="457.88,-205.89 461.38,-215.89 464.88,-205.89 457.88,-205.89"/>
</g>
</g>
</svg>
